name ./resultDataOpenSim/trcMotMarkerGrf/sub06/grf-04-08.mot
datacolumns 19
datarows 22
range 0.52800000 0.61200000
endheader

                time	     ground_force_vx	     ground_force_vy	     ground_force_vz	     ground_force_px	     ground_force_py	     ground_force_pz	   l_ground_force_vx	   l_ground_force_vy	   l_ground_force_vz	   l_ground_force_px	   l_ground_force_py	   l_ground_force_pz	     ground_torque_x	     ground_torque_y	     ground_torque_z	   l_ground_torque_x	   l_ground_torque_y	   l_ground_torque_z	
          0.52800000	         43.84455243	        405.35488223	        -19.17679058	         -0.78298707	          0.00000000	          0.11149982	          0.00000000	          0.00000000	          0.00000000	          0.00000000	          0.00000000	          0.00000000	          0.00000000	          1.27842598	          0.00000000	          0.00000000	          0.00000000	          0.00000000	
          0.53200000	         47.37697281	        423.82460102	        -21.64455425	         -0.78280944	          0.00000000	          0.11130743	          0.00000000	          0.00000000	          0.00000000	          0.00000000	          0.00000000	          0.00000000	          0.00000000	          1.23633501	          0.00000000	          0.00000000	          0.00000000	          0.00000000	
          0.53600000	         51.67095798	        442.45696060	        -23.80722969	         -0.78277133	          0.00000000	          0.11113010	          0.00000000	          0.00000000	          0.00000000	          0.00000000	          0.00000000	          0.00000000	          0.00000000	          1.21062622	          0.00000000	          0.00000000	          0.00000000	          0.00000000	
          0.54000000	         56.63238221	        461.12269273	        -25.47194556	         -0.78284236	          0.00000000	          0.11095739	          0.00000000	          0.00000000	          0.00000000	          0.00000000	          0.00000000	          0.00000000	          0.00000000	          1.21709265	          0.00000000	          0.00000000	          0.00000000	          0.00000000	
          0.54400000	         62.11772140	        479.74340046	        -26.54786782	         -0.78297560	          0.00000000	          0.11078285	          0.00000000	          0.00000000	          0.00000000	          0.00000000	          0.00000000	          0.00000000	          0.00000000	          1.26646670	          0.00000000	          0.00000000	          0.00000000	          0.00000000	
          0.54800000	         67.97576751	        498.27462212	        -27.06005957	         -0.78312132	          0.00000000	          0.11060584	          0.00000000	          0.00000000	          0.00000000	          0.00000000	          0.00000000	          0.00000000	          0.00000000	          1.36146979	          0.00000000	          0.00000000	          0.00000000	          0.00000000	
          0.55200000	         74.08538519	        516.69393548	        -27.13805864	         -0.78324569	          0.00000000	          0.11042589	          0.00000000	          0.00000000	          0.00000000	          0.00000000	          0.00000000	          0.00000000	          0.00000000	          1.49551896	          0.00000000	          0.00000000	          0.00000000	          0.00000000	
          0.55600000	         80.38447970	        534.98718282	        -26.98226668	         -0.78333651	          0.00000000	          0.11024355	          0.00000000	          0.00000000	          0.00000000	          0.00000000	          0.00000000	          0.00000000	          0.00000000	          1.65352807	          0.00000000	          0.00000000	          0.00000000	          0.00000000	
          0.56000000	         86.88046304	        553.13116920	        -26.81783778	         -0.78339877	          0.00000000	          0.11006411	          0.00000000	          0.00000000	          0.00000000	          0.00000000	          0.00000000	          0.00000000	          0.00000000	          1.81474576	          0.00000000	          0.00000000	          0.00000000	          0.00000000	
          0.56400000	         93.63551773	        571.08209463	        -26.84860955	         -0.78344462	          0.00000000	          0.10989451	          0.00000000	          0.00000000	          0.00000000	          0.00000000	          0.00000000	          0.00000000	          0.00000000	          1.95703436	          0.00000000	          0.00000000	          0.00000000	          0.00000000	
          0.56800000	        100.73505241	        588.77776385	        -27.21896841	         -0.78348362	          0.00000000	          0.10973935	          0.00000000	          0.00000000	          0.00000000	          0.00000000	          0.00000000	          0.00000000	          0.00000000	          2.06158354	          0.00000000	          0.00000000	          0.00000000	          0.00000000	
          0.57200000	        108.25557401	        606.14831452	        -27.98576152	         -0.78352721	          0.00000000	          0.10959951	          0.00000000	          0.00000000	          0.00000000	          0.00000000	          0.00000000	          0.00000000	          0.00000000	          2.11691505	          0.00000000	          0.00000000	          0.00000000	          0.00000000	
          0.57600000	        116.24060458	        623.12320488	        -29.10606425	         -0.78358951	          0.00000000	          0.10946749	          0.00000000	          0.00000000	          0.00000000	          0.00000000	          0.00000000	          0.00000000	          0.00000000	          2.12121631	          0.00000000	          0.00000000	          0.00000000	          0.00000000	
          0.58000000	        124.68459418	        639.63367522	        -30.44897937	         -0.78367578	          0.00000000	          0.10932864	          0.00000000	          0.00000000	          0.00000000	          0.00000000	          0.00000000	          0.00000000	          0.00000000	          2.08247266	          0.00000000	          0.00000000	          0.00000000	          0.00000000	
          0.58400000	        133.52542861	        655.61595241	        -31.82717452	         -0.78377589	          0.00000000	          0.10917516	          0.00000000	          0.00000000	          0.00000000	          0.00000000	          0.00000000	          0.00000000	          0.00000000	          2.01642791	          0.00000000	          0.00000000	          0.00000000	          0.00000000	
          0.58800000	        142.65061304	        671.01073295	        -33.03628162	         -0.78386650	          0.00000000	          0.10900891	          0.00000000	          0.00000000	          0.00000000	          0.00000000	          0.00000000	          0.00000000	          0.00000000	          1.94292421	          0.00000000	          0.00000000	          0.00000000	          0.00000000	
          0.59200000	        151.92092524	        685.75299772	        -33.89455944	         -0.78392023	          0.00000000	          0.10882632	          0.00000000	          0.00000000	          0.00000000	          0.00000000	          0.00000000	          0.00000000	          0.00000000	          1.88150479	          0.00000000	          0.00000000	          0.00000000	          0.00000000	
          0.59600000	        161.20547263	        699.75768606	        -34.27615322	         -0.78391906	          0.00000000	          0.10861731	          0.00000000	          0.00000000	          0.00000000	          0.00000000	          0.00000000	          0.00000000	          0.00000000	          1.84726332	          0.00000000	          0.00000000	          0.00000000	          0.00000000	
          0.60000000	        170.40870881	        712.91175240	        -34.13326785	         -0.78385485	          0.00000000	          0.10837791	          0.00000000	          0.00000000	          0.00000000	          0.00000000	          0.00000000	          0.00000000	          0.00000000	          1.84784106	          0.00000000	          0.00000000	          0.00000000	          0.00000000	
          0.60400000	        179.47212683	        725.07461107	        -33.50532342	         -0.78371870	          0.00000000	          0.10810757	          0.00000000	          0.00000000	          0.00000000	          0.00000000	          0.00000000	          0.00000000	          0.00000000	          1.88223116	          0.00000000	          0.00000000	          0.00000000	          0.00000000	
          0.60800000	        188.35818340	        736.08435299	        -32.50895995	         -0.78352134	          0.00000000	          0.10780996	          0.00000000	          0.00000000	          0.00000000	          0.00000000	          0.00000000	          0.00000000	          0.00000000	          1.94162544	          0.00000000	          0.00000000	          0.00000000	          0.00000000	
          0.61200000	        197.03771534	        745.77510663	        -31.30649681	         -0.78327683	          0.00000000	          0.10749048	          0.00000000	          0.00000000	          0.00000000	          0.00000000	          0.00000000	          0.00000000	          0.00000000	          2.01198194	          0.00000000	          0.00000000	          0.00000000	          0.00000000	
